<svg width="26" height="26" viewBox="0 0 26 26" fill="none" xmlns="http://www.w3.org/2000/svg">
<path d="M2.62652 25.1853C1.95579 25.1853 1.38161 24.9465 0.903963 24.4689C0.426321 23.9912 0.1875 23.417 0.1875 22.7463V5.67314C0.1875 5.00241 0.426321 4.42822 0.903963 3.95058C1.38161 3.47294 1.95579 3.23411 2.62652 3.23411H13.5107L11.0716 5.67314H2.62652V22.7463H19.6997V14.2707L22.1387 11.8317V22.7463C22.1387 23.417 21.8999 23.9912 21.4223 24.4689C20.9446 24.9465 20.3704 25.1853 19.6997 25.1853H2.62652ZM16.2546 3.93533L17.9924 5.64265L9.9436 13.6914V15.4292H11.6509L19.7302 7.34997L21.468 9.05729L13.3887 17.1366C13.1651 17.3601 12.906 17.538 12.6113 17.6701C12.3166 17.8022 12.0066 17.8683 11.6814 17.8683H8.72409C8.37856 17.8683 8.08892 17.7514 7.85518 17.5177C7.62144 17.2839 7.50457 16.9943 7.50457 16.6488V13.6914C7.50457 13.3662 7.56555 13.0563 7.6875 12.7616C7.80945 12.4668 7.98222 12.2077 8.20579 11.9841L16.2546 3.93533ZM21.468 9.05729L16.2546 3.93533L19.3034 0.886554C19.7912 0.398749 20.3755 0.154846 21.0564 0.154846C21.7373 0.154846 22.3115 0.398749 22.779 0.886554L24.4863 2.62436C24.9538 3.09184 25.1875 3.66094 25.1875 4.33168C25.1875 5.00241 24.9538 5.57151 24.4863 6.03899L21.468 9.05729Z" fill="#CDCDCD"/>
</svg>
