<svg width="57" height="24" viewBox="0 0 57 24" fill="none" xmlns="http://www.w3.org/2000/svg">
<mask id="mask0_75601_14759" style="mask-type:alpha" maskUnits="userSpaceOnUse" x="0" y="0" width="25" height="24">
<rect x="0.144531" width="24" height="24" fill="#D9D9D9"/>
</mask>
<g mask="url(#mask0_75601_14759)">
<path d="M12.1443 13.4L7.24434 18.3C7.061 18.4834 6.82767 18.575 6.54434 18.575C6.261 18.575 6.02767 18.4834 5.84434 18.3C5.661 18.1167 5.56934 17.8834 5.56934 17.6C5.56934 17.3167 5.661 17.0834 5.84434 16.9L10.7443 12L5.84434 7.10005C5.661 6.91672 5.56934 6.68338 5.56934 6.40005C5.56934 6.11672 5.661 5.88338 5.84434 5.70005C6.02767 5.51672 6.261 5.42505 6.54434 5.42505C6.82767 5.42505 7.061 5.51672 7.24434 5.70005L12.1443 10.6L17.0443 5.70005C17.2277 5.51672 17.461 5.42505 17.7443 5.42505C18.0277 5.42505 18.261 5.51672 18.4443 5.70005C18.6277 5.88338 18.7193 6.11672 18.7193 6.40005C18.7193 6.68338 18.6277 6.91672 18.4443 7.10005L13.5443 12L18.4443 16.9C18.6277 17.0834 18.7193 17.3167 18.7193 17.6C18.7193 17.8834 18.6277 18.1167 18.4443 18.3C18.261 18.4834 18.0277 18.575 17.7443 18.575C17.461 18.575 17.2277 18.4834 17.0443 18.3L12.1443 13.4Z" fill="#2A3647"/>
</g>
<path d="M28.1445 0V24" stroke="#D1D1D1"/>
<mask id="mask1_75601_14759" style="mask-type:alpha" maskUnits="userSpaceOnUse" x="32" y="0" width="25" height="24">
<rect x="32.1445" width="24" height="24" fill="#D9D9D9"/>
</mask>
<g mask="url(#mask1_75601_14759)">
<path d="M41.6947 15.15L50.1697 6.675C50.3697 6.475 50.6072 6.375 50.8822 6.375C51.1572 6.375 51.3947 6.475 51.5947 6.675C51.7947 6.875 51.8947 7.1125 51.8947 7.3875C51.8947 7.6625 51.7947 7.9 51.5947 8.1L42.3947 17.3C42.1947 17.5 41.9614 17.6 41.6947 17.6C41.4281 17.6 41.1947 17.5 40.9947 17.3L36.6947 13C36.4947 12.8 36.3989 12.5625 36.4072 12.2875C36.4156 12.0125 36.5197 11.775 36.7197 11.575C36.9197 11.375 37.1572 11.275 37.4322 11.275C37.7072 11.275 37.9447 11.375 38.1447 11.575L41.6947 15.15Z" fill="#2A3647"/>
</g>
</svg>
